<?xml version="1.0" encoding="UTF-8"?>
<svg xmlns="http://www.w3.org/2000/svg" xmlns:xlink="http://www.w3.org/1999/xlink" viewBox="404 472 272 136">
<path fill-rule="nonzero" fill="rgb(0%, 0%, 0%)" fill-opacity="1" d="M 405 472.5 L 405 540 C 414.941406 540 423 531.941406 423 522 L 423 472.5 Z M 405 472.5 "/>
<path fill-rule="nonzero" fill="rgb(0%, 0%, 0%)" fill-opacity="1" d="M 405 576 L 405 607.5 L 423 607.5 L 423 558 C 423 548.058594 414.941406 540 405 540 Z M 405 576 "/>
<path fill-rule="nonzero" fill="rgb(0%, 0%, 0%)" fill-opacity="1" d="M 494.542969 558.105469 C 498.277344 555.132812 500.269531 551.242188 500.519531 546.4375 L 490.019531 546.4375 C 488.882812 550.910156 485.8125 553.144531 480.8125 553.144531 C 477.394531 553.144531 474.804688 552.027344 473.042969 549.792969 C 471.277344 547.554688 470.394531 544.300781 470.394531 540.019531 C 470.394531 535.800781 471.25 532.582031 472.957031 530.375 C 474.667969 528.167969 477.144531 527.0625 480.394531 527.0625 C 485.617188 527.0625 488.855469 529.300781 490.105469 533.769531 L 500.4375 533.769531 C 500.1875 529.019531 498.160156 525.144531 494.355469 522.144531 C 490.546875 519.144531 485.894531 517.644531 480.394531 517.644531 C 473.921875 517.644531 468.792969 519.6875 465 523.769531 C 461.207031 527.855469 459.3125 533.269531 459.3125 540.019531 C 459.3125 546.828125 461.234375 552.285156 465.082031 556.394531 C 468.929688 560.507812 474.035156 562.5625 480.394531 562.5625 C 486.089844 562.5625 490.804688 561.078125 494.542969 558.105469 M 534.355469 555.730469 L 534.355469 561.4375 L 545.230469 561.4375 L 545.230469 518.769531 L 534.355469 518.769531 L 534.355469 540.6875 C 534.355469 544.910156 533.5625 548.042969 531.980469 550.082031 C 530.394531 552.125 527.953125 553.144531 524.644531 553.144531 C 521.785156 553.144531 519.6875 552.328125 518.355469 550.6875 C 517.019531 549.050781 516.355469 546.550781 516.355469 543.1875 L 516.355469 518.769531 L 505.4375 518.769531 L 505.4375 546.6875 C 505.4375 551.964844 506.734375 555.929688 509.332031 558.582031 C 511.929688 561.234375 515.492188 562.5625 520.019531 562.5625 C 526.410156 562.5625 531.1875 560.285156 534.355469 555.730469 M 562.9375 561.4375 L 562.9375 541.644531 C 562.9375 537.617188 563.933594 534.644531 565.917969 532.730469 C 567.902344 530.8125 571.203125 529.855469 575.8125 529.855469 L 575.8125 518.105469 C 572.8125 518.105469 570.222656 518.832031 568.042969 520.292969 C 565.863281 521.75 564.160156 523.828125 562.9375 526.519531 L 562.9375 518.769531 L 551.980469 518.769531 L 551.980469 561.4375 Z M 600.894531 560.667969 C 603.535156 559.402344 605.660156 557.644531 607.269531 555.394531 L 607.269531 561.4375 L 617.519531 561.4375 L 617.519531 535.394531 C 617.519531 529.425781 616.035156 524.972656 613.0625 522.042969 C 610.089844 519.109375 605.519531 517.644531 599.355469 517.644531 C 593.714844 517.644531 589.292969 518.859375 586.082031 521.292969 C 582.875 523.722656 581.035156 527.144531 580.5625 531.5625 L 590.8125 531.5625 C 591.421875 529.839844 592.355469 528.582031 593.605469 527.792969 C 594.855469 527 596.644531 526.605469 598.980469 526.605469 C 601.785156 526.605469 603.867188 527.25 605.230469 528.542969 C 606.589844 529.832031 607.269531 531.980469 607.269531 534.980469 L 607.269531 535.0625 L 597.4375 535.0625 C 591.242188 535.0625 586.484375 536.410156 583.167969 539.105469 C 579.847656 541.800781 578.1875 545.3125 578.1875 549.644531 C 578.1875 553.589844 579.453125 556.730469 581.980469 559.0625 C 584.507812 561.394531 587.867188 562.5625 592.0625 562.5625 C 595.3125 562.5625 598.257812 561.929688 600.894531 560.667969 M 600.019531 542.0625 L 607.269531 542.0625 C 606.992188 545.507812 605.839844 548.214844 603.8125 550.1875 C 601.785156 552.160156 599.214844 553.144531 596.105469 553.144531 C 594.019531 553.144531 592.359375 552.679688 591.125 551.75 C 589.890625 550.820312 589.269531 549.550781 589.269531 547.9375 C 589.269531 544.019531 592.855469 542.0625 600.019531 542.0625 "/>
<path fill-rule="nonzero" fill="rgb(0%, 0%, 0%)" fill-opacity="1" d="M 675 607.5 L 675 540 C 665.058594 540 657 548.058594 657 558 L 657 607.5 Z M 675 607.5 "/>
<path fill-rule="nonzero" fill="rgb(0%, 0%, 0%)" fill-opacity="1" d="M 675 504 L 675 472.5 L 657 472.5 L 657 522 C 657 531.941406 665.058594 540 675 540 Z M 675 504 "/>
</svg>
